<svg xmlns="http://www.w3.org/2000/svg" viewBox="0 0 96 120" enable-background="new 0 0 96 96"><circle cx="26.534" cy="40.515" r="7.004"/><path d="M15.527 59.833v9.516H37.54v-9.517c0-4.973-4.066-9.04-9.04-9.04h-3.933c-4.972 0-9.04 4.067-9.04 9.04zM49.88 44.75h30.593v5.99H49.88zM49.88 58.575h30.593v5.992H49.88zM42.206 13.954h9.46v16.01h-9.46zM86.96 18.046H54.212v6.168h34.92v51.664H6.866V24.214H39.66v-6.168H9.04c-4.973 0-9.04 4.068-9.04 9.04v45.92c0 4.972 4.067 9.04 9.04 9.04h77.92c4.972 0 9.04-4.068 9.04-9.04v-45.92c0-4.972-4.068-9.04-9.04-9.04z"/><text y="111" font-size="5" font-weight="bold" font-family="'Helvetica Neue', Helvetica, Arial-Unicode, Arial, Sans-serif">Created by Creative Stall</text><text y="116" font-size="5" font-weight="bold" font-family="'Helvetica Neue', Helvetica, Arial-Unicode, Arial, Sans-serif">from the Noun Project</text></svg>