<svg xmlns="http://www.w3.org/2000/svg" xmlns:xlink="http://www.w3.org/1999/xlink" xmlns:sketch="http://www.bohemiancoding.com/sketch/ns" viewBox="0 0 18 22.5" version="1.1" x="0px" y="0px"><title>info-fa</title><desc>Created with Sketch.</desc><g stroke="none" stroke-width="1" fill="none" fill-rule="evenodd" sketch:type="MSPage"><g sketch:type="MSArtboardGroup" transform="translate(-568.000000, -1523.000000)" fill="#fff"><path d="M577,1541 C572.029437,1541 568,1536.97056 568,1532 C568,1527.02944 572.029437,1523 577,1523 C581.970563,1523 586,1527.02944 586,1532 C586,1536.97056 581.970563,1541 577,1541 Z M577,1540 C581.418278,1540 585,1536.41828 585,1532 C585,1527.58172 581.418278,1524 577,1524 C572.581722,1524 569,1527.58172 569,1532 C569,1536.41828 572.581722,1540 577,1540 Z M576,1531.79083 C576,1531.24364 576.443865,1530.80005 577,1530.80005 C577.552285,1530.80005 578,1531.25102 578,1531.79083 L578,1535.80927 C578,1536.35646 577.556135,1536.80005 577,1536.80005 C576.447715,1536.80005 576,1536.34907 576,1535.80927 L576,1531.79083 Z M577,1529 C577.552285,1529 578,1528.55228 578,1528 C578,1527.44772 577.552285,1527 577,1527 C576.447715,1527 576,1527.44772 576,1528 C576,1528.55228 576.447715,1529 577,1529 Z" sketch:type="MSShapeGroup"/></g></g></svg>