<svg xmlns="http://www.w3.org/2000/svg" xmlns:xlink="http://www.w3.org/1999/xlink" xmlns:sketch="http://www.bohemiancoding.com/sketch/ns" viewBox="0 0 30 37.5" version="1.1" x="0px" y="0px"><title>action_043-favorite-bookmark-star-like</title><desc>Created with Sketch.</desc><g stroke="none" stroke-width="1" fill="none" fill-rule="evenodd" sketch:type="MSPage"><g sketch:type="MSArtboardGroup" transform="translate(-135.000000, -225.000000)" fill="#000000"><path d="M157.114645,251.555278 C157.481459,251.748124 157.910175,251.436643 157.84012,251.02819 L156.482629,243.104663 L162.237212,237.495331 C162.533971,237.206063 162.370216,236.702077 161.960106,236.642484 L154.008037,235.491395 L150.448368,228.278717 C150.264961,227.907094 149.735039,227.907094 149.551632,228.278717 L145.988903,235.487426 L138.039894,236.642484 C137.629784,236.702077 137.466029,237.206063 137.762788,237.495331 L143.518954,243.104181 L142.15988,251.02819 C142.089825,251.436643 142.518541,251.748124 142.885355,251.555278 L150.003413,247.813094 L157.114645,251.555278 Z" sketch:type="MSShapeGroup"/></g></g><text x="0" y="45" fill="#000000" font-size="5px" font-weight="bold" font-family="'Helvetica Neue', Helvetica, Arial-Unicode, Arial, Sans-serif">Created by Pham Thi Dieu Linh</text><text x="0" y="50" fill="#000000" font-size="5px" font-weight="bold" font-family="'Helvetica Neue', Helvetica, Arial-Unicode, Arial, Sans-serif">from the Noun Project</text></svg>